<svg xmlns="http://www.w3.org/2000/svg" width="460" height="60" viewBox="0 0 460 60">
  <defs>
    <style>
      .cls-1 {
        fill: #cc2128;
      }

      .cls-1, .cls-2 {
        fill-rule: evenodd;
      }

      .cls-2 {
        fill: #9c9ea0;
      }
    </style>
  </defs>
  <path id="portmone" class="cls-1" d="M0,8.455H9.435v5.482A14.12,14.12,0,0,1,21.312,7.613a14.656,14.656,0,0,1,11.266,5.1q4.63,5.1,4.627,14.206,0,9.348-4.666,14.535A14.646,14.646,0,0,1,21.23,46.638a13.085,13.085,0,0,1-5.722-1.226,19.2,19.2,0,0,1-5.4-4.216V60H0V8.455ZM9.961,26.507q0,6.307,2.553,9.295a7.822,7.822,0,0,0,6.207,3.011,7.347,7.347,0,0,0,5.855-2.756q2.339-2.761,2.333-9.05,0-5.881-2.406-8.724a7.5,7.5,0,0,0-5.959-2.846,7.805,7.805,0,0,0-6.138,2.8Q9.958,21.028,9.961,26.507ZM40.992,26.6a19.826,19.826,0,0,1,2.475-9.527,16.783,16.783,0,0,1,7.009-7.034A21.129,21.129,0,0,1,60.609,7.613a19.234,19.234,0,0,1,14.169,5.5,18.806,18.806,0,0,1,5.527,13.909A19.064,19.064,0,0,1,60.681,46.638a22.393,22.393,0,0,1-9.991-2.321,16.1,16.1,0,0,1-7.223-6.8A22.272,22.272,0,0,1,40.992,26.6Zm10.343,0.527q0,5.55,2.682,8.505a8.881,8.881,0,0,0,13.227,0q2.665-2.954,2.665-8.577,0-5.479-2.665-8.432a8.886,8.886,0,0,0-13.227,0Q51.333,21.577,51.335,27.127ZM131.423,8.455v7.871h-6.89v15.05a37.416,37.416,0,0,0,.191,5.329,2.188,2.188,0,0,0,.9,1.246,2.869,2.869,0,0,0,1.694.49,13.283,13.283,0,0,0,4.033-.944l0.893,7.667a20.257,20.257,0,0,1-7.959,1.474,12.951,12.951,0,0,1-4.913-.889,7.2,7.2,0,0,1-3.206-2.327,8.993,8.993,0,0,1-1.411-3.844,46.275,46.275,0,0,1-.326-6.965V16.326h-4.644V8.455h4.644V3.433l10.108-3.425V8.455h6.89Zm5.344,0h9.288v5.1q5-5.944,11.916-5.942a13.09,13.09,0,0,1,6.37,1.472,11.464,11.464,0,0,1,4.422,4.455,17.586,17.586,0,0,1,5.43-4.455,13.578,13.578,0,0,1,6.223-1.472,14.149,14.149,0,0,1,7.125,1.671,10.293,10.293,0,0,1,4.351,4.9q1.04,2.39,1.041,7.74V45.8h-10.1V24.448q0-5.568-1.039-7.18a4.817,4.817,0,0,0-4.315-2.116,7.035,7.035,0,0,0-6.695,4.984,26.092,26.092,0,0,0-.83,7.719V45.8h-10.11V25.324c0-3.638-.173-5.986-0.532-7.041a4.516,4.516,0,0,0-1.673-2.355,5.361,5.361,0,0,0-3.071-.776,7.483,7.483,0,0,0-4.208,1.238,6.7,6.7,0,0,0-2.674,3.55,25.81,25.81,0,0,0-.814,7.7V45.8h-10.1V8.455ZM196.748,26.6a19.774,19.774,0,0,1,2.47-9.527,16.8,16.8,0,0,1,7.01-7.034,21.128,21.128,0,0,1,10.141-2.426q8.636,0,14.158,5.5a18.788,18.788,0,0,1,5.531,13.909,19.062,19.062,0,0,1-19.622,19.614,22.329,22.329,0,0,1-9.986-2.321,16.1,16.1,0,0,1-7.232-6.8A22.227,22.227,0,0,1,196.748,26.6Zm10.339,0.527q0,5.55,2.686,8.505a8.882,8.882,0,0,0,13.227,0c1.782-1.97,2.662-4.826,2.662-8.577,0-3.653-.88-6.463-2.662-8.432a8.886,8.886,0,0,0-13.227,0Q207.09,21.577,207.087,27.127Zm67.7,18.669H264.7V26.73c0-4.034-.224-6.64-0.655-7.83a5.467,5.467,0,0,0-2.1-2.759,6.055,6.055,0,0,0-3.5-.99,8.218,8.218,0,0,0-4.7,1.412,7.133,7.133,0,0,0-2.842,3.727q-0.767,2.325-.768,8.588V45.8H240.031V8.455h9.382v5.482a15.379,15.379,0,0,1,12.569-6.324,15.558,15.558,0,0,1,6.1,1.169,10.3,10.3,0,0,1,4.184,3.016,10.807,10.807,0,0,1,1.969,4.146,30.091,30.091,0,0,1,.556,6.648V45.8Zm29.96-11.9L314.8,35.54a16.2,16.2,0,0,1-6.11,8.268,18.2,18.2,0,0,1-10.463,2.83q-9.936,0-14.706-6.359-3.767-5.1-3.768-12.868,0-9.284,4.951-14.539a16.445,16.445,0,0,1,12.515-5.259q8.5,0,13.412,5.5t4.7,16.85H290.1a9.935,9.935,0,0,0,2.432,6.834,7.725,7.725,0,0,0,5.806,2.445,6.281,6.281,0,0,0,3.978-1.263A7.833,7.833,0,0,0,304.752,33.892Zm0.573-9.978c-0.07-2.858-.82-5.038-2.257-6.523a7.346,7.346,0,0,0-10.677.12,9.052,9.052,0,0,0-2.117,6.4h15.051ZM102.821,17.2c-4.578,0-8.063,3.016-8.063,9.376V45.832H84.64V8.574h8.821v6.491h0.27c1.777-4.822,5.876-7.3,9.439-7.3a10.784,10.784,0,0,1,2.253.2V17.4A14.719,14.719,0,0,0,102.821,17.2Z"/>
  <path id="_.com" data-name=".com" class="cls-2" d="M321.452,45.475v-7.2h7.356v7.2h-7.356Zm38.194-13.65L366,32.668a15.873,15.873,0,0,1-5.316,10.022,15.682,15.682,0,0,1-10.508,3.623q-7.8,0-12.551-5t-4.748-14.322a25.5,25.5,0,0,1,2.041-10.564,14.027,14.027,0,0,1,6.208-6.792,18.731,18.731,0,0,1,9.081-2.26,16,16,0,0,1,10.125,3.065,13.99,13.99,0,0,1,5.052,8.716l-6.253.932a10.1,10.1,0,0,0-3.17-5.634,8.313,8.313,0,0,0-5.49-1.889,10.06,10.06,0,0,0-7.91,3.417q-3.06,3.429-3.049,10.831c0,5,.977,8.646,2.936,10.912a9.633,9.633,0,0,0,7.657,3.4,9.164,9.164,0,0,0,6.332-2.276Q358.974,36.565,359.646,31.825Zm9.458-4.979q0-10.349,5.866-15.335a17.926,17.926,0,0,1,11.954-4.138,17.252,17.252,0,0,1,12.816,5.035q4.968,5.038,4.973,13.912,0,7.195-2.2,11.316a15.372,15.372,0,0,1-6.4,6.4,18.9,18.9,0,0,1-9.184,2.281q-7.969,0-12.9-5.017C370.745,37.962,369.1,33.132,369.1,26.846Zm6.633,0q0,7.166,3.181,10.72a10.736,10.736,0,0,0,15.979-.014c2.117-2.4,3.186-6.022,3.186-10.91,0-4.613-1.074-8.1-3.2-10.475a10.741,10.741,0,0,0-15.966-.015Q375.742,19.693,375.737,26.848Zm32.715,18.627V8.213h5.771v5.225a13.467,13.467,0,0,1,4.759-4.4,13.644,13.644,0,0,1,6.761-1.663,12.664,12.664,0,0,1,6.92,1.719,9.181,9.181,0,0,1,3.8,4.805q4.539-6.529,11.773-6.524,5.658,0,8.71,3.065T460,19.9V45.475h-6.446V22a17.08,17.08,0,0,0-.621-5.459,5.349,5.349,0,0,0-2.281-2.683,7.121,7.121,0,0,0-3.859-1.016,9.11,9.11,0,0,0-6.669,2.614q-2.652,2.612-2.649,8.373V45.475H431.03V21.266q0-4.218-1.577-6.318T424.3,12.843a9.529,9.529,0,0,0-5.026,1.4,7.934,7.934,0,0,0-3.341,4.1,22.708,22.708,0,0,0-1.04,7.791V45.475h-6.443Z"/>
</svg>
